# Blender v3.5.1 OBJ File: ''
# www.blender.org
mtllib Factory.mtl
o Cube
v -1.770366 -0.001122 1.706544
v -1.054251 6.575695 0.352853
v -1.552505 -0.001122 -6.855377
v -0.629926 4.205251 -2.152710
v 1.770366 0.086024 0.504625
v 1.770366 1.984990 0.504625
v -0.629926 4.205251 -6.409211
v 0.629926 4.205251 -2.152710
v -0.660064 6.575695 -0.831550
v -1.770366 -0.001122 -1.706544
v 1.770366 0.086024 -0.504625
v 1.770366 1.984990 -0.504625
v 1.552431 -0.001122 -1.706544
v -1.552505 -0.001122 -1.706544
v 0.629926 4.205251 -6.409211
v 1.552431 -0.001122 -6.855377
v 1.552431 -0.001122 -3.422822
v 1.552431 -0.001122 -5.139100
v 0.629926 4.205251 -5.139100
v 0.629926 4.205251 -3.422822
v -1.552505 -0.001122 -3.422822
v -1.552505 -0.001122 -5.139100
v -0.629926 4.205251 -5.139100
v -0.629926 4.205251 -3.422822
v -1.552422 4.205251 -1.706544
v 1.552422 4.205251 -1.706544
v -1.552422 4.205251 -6.855377
v 1.552422 4.205251 -6.855377
v 1.552422 4.205251 -3.422822
v -1.552422 4.205251 -3.422822
v 1.552422 4.205251 -5.139100
v -1.552422 4.205251 -5.139100
v 1.552431 -0.001122 -3.721275
v 1.552422 4.205251 -3.721275
v -1.552505 -0.001122 -3.721275
v -1.552422 4.205251 -3.721275
v 0.629926 4.205251 -3.721275
v -0.629926 4.205251 -3.721275
v 1.552431 -0.001122 -4.819964
v -1.552505 -0.001122 -4.819964
v 1.552422 4.205251 -4.819964
v -1.552422 4.205251 -4.819964
v 0.629926 4.205251 -4.819964
v -0.629926 4.205251 -4.819964
v 0.396502 6.558953 -3.300496
v -0.396502 6.558953 -3.300496
v 0.396502 6.332033 -5.261425
v -0.396502 6.332033 -5.261425
v -0.396502 7.486651 -2.275036
v 0.396502 7.486651 -2.275036
v -0.396502 5.404335 -6.286885
v 0.396502 5.404335 -6.286885
v 0.396502 6.042600 -4.709978
v 0.396502 6.961575 -3.831261
v -0.396502 6.042600 -4.709978
v -0.396502 6.961575 -3.831261
v 1.118441 6.575695 -0.541420
v 1.770366 -0.001122 -1.706544
v 1.770366 -0.001122 1.706544
v 0.567417 6.575695 1.114230
v 1.392642 1.984990 -0.504625
v 1.392642 0.086024 -0.504625
v 1.392642 0.086024 0.504625
v 1.392642 1.984990 0.504625
v -1.770366 6.575696 1.706544
v -1.770366 6.575696 -1.706544
v 1.770366 6.575696 -1.706544
v 1.770366 6.575696 1.706544
v -0.041651 6.575695 -1.086086
v 0.621350 6.575695 -0.977930
v 1.291800 6.575695 0.084856
v 1.086386 6.575695 0.702058
v -0.100339 6.575695 1.190510
v -0.704873 6.575695 0.906680
v -1.037546 6.575695 -0.295134
v -0.800295 7.210052 -0.221764
v -0.501626 7.210052 -0.646183
v 0.512246 7.210052 -0.762001
v 0.905551 7.210052 -0.416628
v 0.880189 7.210052 0.567228
v 0.469573 7.210052 0.893344
v -0.537079 7.210052 0.729127
v -0.813511 7.210052 0.290932
v -0.012329 7.210052 -0.847575
v 1.042715 7.210052 0.078889
v -0.058764 7.210052 0.953698
v -0.800295 9.284817 -0.221764
v -0.501626 9.284817 -0.646183
v 0.512246 9.284817 -0.762001
v 0.905551 9.284817 -0.416628
v 0.880189 9.284817 0.567228
v 0.469573 9.284817 0.893344
v -0.537079 9.284817 0.729127
v -0.813511 9.284817 0.290932
v -0.012329 9.284817 -0.847575
v 1.042715 9.284817 0.078889
v -0.058764 9.284817 0.953698
v -0.538202 9.501312 -0.140711
v -0.326599 9.501312 -0.441408
v 0.391718 9.501312 -0.523463
v 0.670371 9.501312 -0.278771
v 0.652402 9.501312 0.418281
v 0.361485 9.501312 0.649330
v -0.351717 9.501312 0.532985
v -0.547566 9.501312 0.222528
v 0.020063 9.501312 -0.584092
v 0.767550 9.501312 0.072298
v -0.012836 9.501312 0.692090
v -0.901150 9.501312 -0.252953
v -0.568977 9.501312 -0.724982
v 0.558626 9.501312 -0.853792
v 0.996050 9.501312 -0.469677
v 0.967843 9.501312 0.624544
v 0.511166 9.501312 0.987242
v -0.608408 9.501312 0.804604
v -0.915849 9.501312 0.317255
v -0.024794 9.501312 -0.948966
v 1.148600 9.501312 0.081426
v -0.076437 9.501312 1.054366
v -0.538202 6.803271 -0.140711
v -0.326599 6.803271 -0.441408
v 0.391718 6.803271 -0.523463
v 0.670371 6.803271 -0.278771
v 0.652402 6.803271 0.418281
v 0.361485 6.803271 0.649330
v -0.351717 6.803271 0.532985
v -0.547566 6.803271 0.222528
v 0.020063 6.803271 -0.584092
v 0.767550 6.803271 0.072298
v -0.012836 6.803271 0.692090
v 0.629926 6.448289 -3.422822
v -0.629926 6.448289 -3.422822
v 0.629926 6.442697 -5.139100
v -0.629926 6.442697 -5.139100
v -0.629926 7.597315 -2.152710
v 0.629926 7.597315 -2.152710
v -0.629926 5.293671 -6.409211
v 0.629926 5.293671 -6.409211
v 0.629926 5.927574 -4.819964
v 0.629926 7.076600 -3.721275
v -0.629926 5.927574 -4.819964
v -0.629926 7.076600 -3.721275
v 0.396502 3.924886 -3.300496
v -0.396502 3.924886 -3.300496
v 0.396502 3.924886 -5.261425
v -0.396502 3.924886 -5.261425
v -0.396502 3.924886 -2.275036
v 0.396502 3.924886 -2.275036
v -0.396502 3.924886 -6.286885
v 0.396502 3.924886 -6.286885
v 0.396502 3.924886 -4.709978
v 0.396502 3.924886 -3.831261
v -0.396502 3.924886 -4.709978
v -0.396502 3.924886 -3.831261
vt 0.375000 0.000000
vt 0.625000 0.000000
vt 0.625000 0.250000
vt 0.375000 0.250000
vt 0.375000 0.265382
vt 0.620320 0.265388
vt 0.598228 0.588037
vt 0.598228 0.661963
vt 0.598228 0.661963
vt 0.598228 0.588037
vt 0.375000 0.750000
vt 0.625000 0.750000
vt 0.625000 1.000000
vt 0.375000 1.000000
vt 0.125000 0.500000
vt 0.140382 0.500000
vt 0.359612 0.500000
vt 0.375000 0.500000
vt 0.125000 0.750000
vt 0.795604 0.690871
vt 0.699215 0.690871
vt 0.699215 0.690871
vt 0.795604 0.690871
vt 0.375000 0.484612
vt 0.620320 0.484612
vt 0.625000 0.500000
vt 0.620320 0.298069
vt 0.620320 0.298069
vt 0.620320 0.298069
vt 0.620320 0.298069
vt 0.375000 0.265382
vt 0.620320 0.265388
vt 0.620320 0.484612
vt 0.375000 0.484612
vt 0.620320 0.484612
vt 0.375000 0.484612
vt 0.359612 0.500000
vt 0.140382 0.500000
vt 0.140382 0.500000
vt 0.359612 0.500000
vt 0.375000 0.265382
vt 0.620320 0.265388
vt 0.620320 0.265388
vt 0.375000 0.265382
vt 0.375000 0.265382
vt 0.620320 0.265388
vt 0.140382 0.500000
vt 0.359612 0.500000
vt 0.359612 0.500000
vt 0.140382 0.500000
vt 0.375000 0.484612
vt 0.620320 0.484612
vt 0.620320 0.484612
vt 0.375000 0.484612
vt 0.620320 0.298069
vt 0.620320 0.298069
vt 0.620320 0.298069
vt 0.620320 0.298069
vt 0.620320 0.298069
vt 0.620320 0.451931
vt 0.620320 0.451931
vt 0.620320 0.451931
vt 0.620320 0.451931
vt 0.620320 0.451931
vt 0.620320 0.451931
vt 0.620320 0.484612
vt 0.620320 0.298069
vt 0.620320 0.265388
vt 0.375000 0.484612
vt 0.140382 0.500000
vt 0.359612 0.500000
vt 0.375000 0.265382
vt 0.620320 0.451931
vt 0.620320 0.326576
vt 0.620320 0.326576
vt 0.620320 0.326576
vt 0.620320 0.326576
vt 0.620320 0.423424
vt 0.620320 0.326576
vt 0.620320 0.326576
vt 0.620320 0.423424
vt 0.620320 0.326576
vt 0.620320 0.423424
vt 0.620320 0.423424
vt 0.620320 0.326576
vt 0.620320 0.451931
vt 0.620320 0.451931
vt 0.620320 0.451931
vt 0.620320 0.298069
vt 0.620320 0.298069
vt 0.620320 0.451931
vt 0.620320 0.451931
vt 0.401772 0.588038
vt 0.401772 0.661963
vt 0.401772 0.588038
vt 0.401772 0.661963
vt 0.815871 0.690871
vt 0.815871 0.670545
vt 0.875000 0.750000
vt 0.815871 0.559130
vt 0.783546 0.559130
vt 0.875000 0.500000
vt 0.684129 0.559129
vt 0.684129 0.578632
vt 0.684129 0.690871
vt 0.684129 0.578632
vt 0.684129 0.559129
vt 0.684129 0.559129
vt 0.684129 0.578632
vt 0.710779 0.559129
vt 0.684129 0.671168
vt 0.710779 0.559129
vt 0.815871 0.559130
vt 0.783546 0.559130
vt 0.684129 0.671168
vt 0.684129 0.690871
vt 0.815871 0.690871
vt 0.815871 0.670545
vt 0.710779 0.559129
vt 0.710779 0.559129
vt 0.684129 0.559129
vt 0.795604 0.690871
vt 0.815871 0.690871
vt 0.815871 0.670545
vt 0.815871 0.559130
vt 0.684129 0.671168
vt 0.783546 0.559130
vt 0.684129 0.690871
vt 0.699215 0.690871
vt 0.729298 0.579766
vt 0.764370 0.582127
vt 0.764370 0.582127
vt 0.729298 0.579766
vt 0.684129 0.690871
vt 0.699215 0.690871
vt 0.783546 0.559130
vt 0.684129 0.671168
vt 0.795604 0.690871
vt 0.684129 0.578632
vt 0.815871 0.690871
vt 0.815871 0.670545
vt 0.815871 0.559130
vt 0.793422 0.642388
vt 0.787480 0.599264
vt 0.707605 0.584901
vt 0.700956 0.645568
vt 0.706298 0.667303
vt 0.766923 0.673000
vt 0.788816 0.666539
vt 0.701142 0.606324
vt 0.726964 0.673165
vt 0.707605 0.584901
vt 0.787480 0.599264
vt 0.793422 0.642388
vt 0.788816 0.666539
vt 0.766923 0.673000
vt 0.726964 0.673165
vt 0.706298 0.667303
vt 0.700956 0.645568
vt 0.701142 0.606324
vt 0.620320 0.423424
vt 0.620320 0.423424
vt 0.620320 0.326576
vt 0.620320 0.423424
vt 0.620320 0.423424
vt 0.620320 0.326576
vt 0.620320 0.423424
vt 0.620320 0.423424
vt 0.620320 0.326576
vt 0.620320 0.423424
vt 0.620320 0.423424
vt 0.620320 0.326576
vn -1.0000 0.0000 0.0000
vn 0.0000 0.0000 -1.0000
vn 0.0000 -1.0000 0.0000
vn 0.0000 0.0000 1.0000
vn -0.3991 0.3435 0.8501
vn 1.0000 0.0000 0.0000
vn 0.0000 1.0000 0.0000
vn 0.9638 0.0000 -0.2668
vn 0.6190 0.3464 -0.7049
vn -0.3575 0.3431 -0.8686
vn 0.9021 0.3519 -0.2497
vn 0.5835 0.3459 0.7348
vn 0.1067 0.3416 0.9338
vn -0.9354 0.3526 -0.0241
vn -0.7924 0.3495 0.4999
vn 0.1513 0.3417 -0.9275
vn -0.7664 0.3490 -0.5393
vn 0.8883 0.3516 0.2956
vn 0.5995 -0.4179 -0.6827
vn -0.8458 0.0000 0.5335
vn -0.9997 0.0000 -0.0258
vn -0.8178 0.0000 -0.5755
vn 0.9488 0.0000 0.3158
vn -0.3806 0.0000 -0.9247
vn 0.6598 0.0000 -0.7514
vn 0.1135 0.0000 0.9935
vn 0.1610 0.0000 -0.9870
vn 0.6219 0.0000 0.7831
vn -0.4250 0.0000 0.9052
vn -0.1610 0.0000 0.9870
vn 0.1034 -0.4124 0.9051
vn 0.1467 -0.4126 -0.8990
vn 0.5652 -0.4172 0.7117
vn -0.3867 -0.4146 0.8237
vn 0.8728 -0.4241 -0.2416
vn -0.7670 -0.4214 0.4839
vn -0.9049 -0.4249 -0.0233
vn -0.7419 -0.4208 -0.5221
vn 0.8595 -0.4237 0.2860
vn -0.3464 -0.4141 -0.8417
vn -0.6219 0.0000 -0.7831
vn 0.4250 0.0000 -0.9052
vn -0.9638 0.0000 0.2668
vn 0.8458 0.0000 -0.5335
vn 0.9997 0.0000 0.0258
vn 0.8178 0.0000 0.5755
vn -0.9488 0.0000 -0.3158
vn 0.3806 0.0000 0.9247
vn -0.6598 0.0000 0.7514
vn -0.1135 0.0000 -0.9935
vn 0.0000 0.7416 -0.6709
vn 0.0000 0.6911 -0.7228
usemtl None
s off
f 1/1/1 65/2/1 66/3/1 10/4/1
f 14/5/2 10/4/2 66/3/2 25/6/2
f 12/7/3 6/8/3 64/9/3 61/10/3
f 59/11/4 68/12/4 65/13/4 1/14/4
f 10/15/3 14/16/3 13/17/3 58/18/3 59/11/3 1/19/3
f 74/20/5 73/21/5 86/22/5 82/23/5
f 13/24/2 26/25/2 67/26/2 58/18/2
f 24/27/1 4/28/1 135/29/1 132/30/1
f 26/25/2 25/6/2 66/3/2 67/26/2
f 3/31/2 27/32/2 28/33/2 16/34/2
f 31/35/6 18/36/6 16/34/6 28/33/6
f 18/37/3 22/38/3 3/39/3 16/40/3
f 22/41/1 32/42/1 27/32/1 3/31/1
f 14/5/1 25/6/1 30/43/1 21/44/1
f 40/45/1 42/46/1 32/42/1 22/41/1
f 13/17/3 14/16/3 21/47/3 17/48/3
f 39/49/3 40/50/3 22/38/3 18/37/3
f 26/25/6 13/24/6 17/51/6 29/52/6
f 41/53/6 39/54/6 18/36/6 31/35/6
f 7/55/1 23/56/1 134/57/1 137/58/1
f 44/59/7 43/60/7 19/61/7 23/56/7
f 8/62/7 4/28/7 25/6/7 26/25/7
f 7/55/7 15/63/7 28/33/7 27/32/7
f 20/64/7 8/62/7 26/25/7 29/52/7
f 4/28/7 24/27/7 30/43/7 25/6/7
f 15/63/7 19/61/7 31/35/7 28/33/7
f 37/65/7 20/64/7 29/52/7 34/66/7
f 23/56/7 7/55/7 27/32/7 32/42/7
f 44/59/7 23/56/7 32/42/7 42/46/7
f 24/27/7 38/67/7 36/68/7 30/43/7
f 43/60/7 37/65/7 34/66/7 41/53/7
f 24/27/7 20/64/7 37/65/7 38/67/7
f 29/52/6 17/51/6 33/69/6 34/66/6
f 17/48/3 21/47/3 35/70/3 33/71/3
f 21/44/1 30/43/1 36/68/1 35/72/1
f 19/61/7 43/60/7 41/53/7 31/35/7
f 38/67/7 44/59/7 42/46/7 36/68/7
f 23/56/4 19/61/4 133/73/4 134/57/4
f 34/66/6 33/69/6 39/54/6 41/53/6
f 33/71/3 35/70/3 40/50/3 39/49/3
f 35/72/1 36/68/1 42/46/1 40/45/1
f 51/74/6 48/75/6 146/76/6 149/77/6
f 45/78/4 46/79/4 144/80/4 143/81/4
f 56/82/2 54/83/2 152/84/2 154/85/2
f 37/65/6 43/60/6 139/86/6 140/87/6
f 4/28/4 8/62/4 136/88/4 135/29/4
f 38/67/4 37/65/4 140/87/4 142/89/4
f 44/59/1 38/67/1 142/89/1 141/90/1
f 19/61/6 15/63/6 138/91/6 133/73/6
f 15/63/2 7/55/2 137/58/2 138/91/2
f 20/64/2 24/27/2 132/30/2 131/92/2
f 43/60/2 44/59/2 141/90/2 139/86/2
f 8/62/6 20/64/6 131/92/6 136/88/6
f 12/7/6 11/93/6 58/18/6 67/26/6
f 11/93/6 5/94/6 59/11/6 58/18/6
f 6/8/6 12/7/6 67/26/6 68/12/6
f 5/94/6 6/8/6 68/12/6 59/11/6
f 62/95/6 61/10/6 64/9/6 63/96/6
f 11/93/4 12/7/4 61/10/4 62/95/4
f 6/8/2 5/94/2 63/96/2 64/9/2
f 5/94/7 11/93/7 62/95/7 63/96/7
f 2/97/7 75/98/7 65/99/7
f 9/100/7 69/101/7 66/102/7
f 57/103/7 71/104/7 67/26/7
f 60/105/7 73/21/7 68/12/7
f 85/106/8 79/107/8 90/108/8 96/109/8
f 66/102/7 69/101/7 70/110/7 67/26/7
f 67/26/7 70/110/7 57/103/7
f 67/26/7 71/104/7 72/111/7 68/12/7
f 68/12/7 72/111/7 60/105/7
f 68/12/7 73/21/7 74/20/7 65/99/7
f 65/99/7 74/20/7 2/97/7
f 65/99/7 75/98/7 9/100/7 66/102/7
f 57/103/9 70/110/9 78/112/9 79/107/9
f 69/101/10 9/100/10 77/113/10 84/114/10
f 71/104/11 57/103/11 79/107/11 85/106/11
f 60/105/12 72/111/12 80/115/12 81/116/12
f 73/21/13 60/105/13 81/116/13 86/22/13
f 75/98/14 2/97/14 83/117/14 76/118/14
f 2/97/15 74/20/15 82/23/15 83/117/15
f 70/110/16 69/101/16 84/114/16 78/112/16
f 9/100/17 75/98/17 76/118/17 77/113/17
f 72/111/18 71/104/18 85/106/18 80/115/18
f 90/108/19 89/119/19 111/120/19 112/121/19
f 83/117/20 82/23/20 93/122/20 94/123/20
f 76/118/21 83/117/21 94/123/21 87/124/21
f 77/113/22 76/118/22 87/124/22 88/125/22
f 80/115/23 85/106/23 96/109/23 91/126/23
f 84/114/24 77/113/24 88/125/24 95/127/24
f 79/107/25 78/112/25 89/119/25 90/108/25
f 86/22/26 81/116/26 92/128/26 97/129/26
f 78/112/27 84/114/27 95/127/27 89/119/27
f 81/116/28 80/115/28 91/126/28 92/128/28
f 82/23/29 86/22/29 97/129/29 93/122/29
f 100/130/30 106/131/30 128/132/30 122/133/30
f 97/129/31 92/128/31 114/134/31 119/135/31
f 89/119/32 95/127/32 117/136/32 111/120/32
f 92/128/33 91/126/33 113/137/33 114/134/33
f 93/122/34 97/129/34 119/135/34 115/138/34
f 96/109/35 90/108/35 112/121/35 118/139/35
f 94/123/36 93/122/36 115/138/36 116/140/36
f 87/124/37 94/123/37 116/140/37 109/141/37
f 88/125/38 87/124/38 109/141/38 110/142/38
f 91/126/39 96/109/39 118/139/39 113/137/39
f 95/127/40 88/125/40 110/142/40 117/136/40
f 98/143/7 99/144/7 110/142/7 109/141/7
f 100/130/7 101/145/7 112/121/7 111/120/7
f 102/146/7 103/147/7 114/134/7 113/137/7
f 104/148/7 105/149/7 116/140/7 115/138/7
f 99/144/7 106/131/7 117/136/7 110/142/7
f 106/131/7 100/130/7 111/120/7 117/136/7
f 101/145/7 107/150/7 118/139/7 112/121/7
f 107/150/7 102/146/7 113/137/7 118/139/7
f 103/147/7 108/151/7 119/135/7 114/134/7
f 108/151/7 104/148/7 115/138/7 119/135/7
f 105/149/7 98/143/7 109/141/7 116/140/7
f 123/152/7 122/133/7 128/132/7 121/153/7 120/154/7 127/155/7 126/156/7 130/157/7 125/158/7 124/159/7 129/160/7
f 103/147/41 102/146/41 124/159/41 125/158/41
f 104/148/42 108/151/42 130/157/42 126/156/42
f 107/150/43 101/145/43 123/152/43 129/160/43
f 105/149/44 104/148/44 126/156/44 127/155/44
f 98/143/45 105/149/45 127/155/45 120/154/45
f 99/144/46 98/143/46 120/154/46 121/153/46
f 102/146/47 107/150/47 129/160/47 124/159/47
f 106/131/48 99/144/48 121/153/48 128/132/48
f 101/145/49 100/130/49 122/133/49 123/152/49
f 108/151/50 103/147/50 125/158/50 130/157/50
f 46/79/51 45/78/51 131/92/51 132/30/51
f 47/161/51 48/75/51 134/57/51 133/73/51
f 50/162/51 49/163/51 135/29/51 136/88/51
f 51/74/51 52/164/51 138/91/51 137/58/51
f 45/78/51 50/162/51 136/88/51 131/92/51
f 49/163/51 46/79/51 132/30/51 135/29/51
f 52/164/51 47/161/51 133/73/51 138/91/51
f 48/75/51 51/74/51 137/58/51 134/57/51
f 53/165/52 54/83/52 140/87/52 139/86/52
f 56/82/52 55/166/52 141/90/52 142/89/52
f 54/83/52 56/82/52 142/89/52 140/87/52
f 55/166/52 53/165/52 139/86/52 141/90/52
f 146/76/7 145/167/7 150/168/7 149/77/7
f 147/169/7 148/170/7 143/81/7 144/80/7
f 154/85/7 152/84/7 151/171/7 153/172/7
f 50/162/1 45/78/1 143/81/1 148/170/1
f 53/165/4 55/166/4 153/172/4 151/171/4
f 48/75/2 47/161/2 145/167/2 146/76/2
f 54/83/1 53/165/1 151/171/1 152/84/1
f 46/79/6 49/163/6 147/169/6 144/80/6
f 49/163/2 50/162/2 148/170/2 147/169/2
f 55/166/6 56/82/6 154/85/6 153/172/6
f 47/161/1 52/164/1 150/168/1 145/167/1
f 52/164/4 51/74/4 149/77/4 150/168/4
